<svg width="40" height="25" viewBox="0 0 40 25" fill="none" xmlns="http://www.w3.org/2000/svg">
<path d="M15.3504 11.4678C19.2403 8.42622 18.379 2.31422 13.8 0.466172C13.0384 0.158812 12.2249 0.0005625 11.4036 0H1.06909C0.478656 0 0 0.478641 0 1.06909V23.8764C0 24.4668 0.478625 24.9455 1.06909 24.9455H12.1164C17.6029 24.944 21.0305 19.0038 18.286 14.253C17.5971 13.0604 16.5775 12.093 15.3504 11.4678ZM2.13819 2.13817H11.4036C14.6956 2.14017 16.7509 5.70505 15.1032 8.55497C14.3394 9.87602 12.9296 10.69 11.4036 10.6909H2.13819V2.13817ZM12.1164 22.8073H2.13819V12.8291H12.1164C15.957 12.8291 18.3573 16.9867 16.437 20.3127C15.5458 21.8564 13.8988 22.8073 12.1164 22.8073ZM24.2327 3.92C24.2327 3.32953 24.7114 2.85087 25.3018 2.85091H36.7055C37.5284 2.85094 38.0428 3.74188 37.6313 4.45458C37.4403 4.78533 37.0874 4.98906 36.7055 4.98909H25.3018C24.7114 4.98911 24.2327 4.51045 24.2327 3.92ZM31.0036 8.55272C24.6941 8.55378 20.7517 15.3847 23.9074 20.8485C26.8475 25.9389 34.0323 26.3706 37.5607 21.6687C38.0552 21.0103 37.6515 20.0635 36.8341 19.9645C36.4547 19.9185 36.0797 20.0784 35.8502 20.384C33.0526 24.1153 27.2648 23.4188 25.4323 19.1303C25.2523 18.7092 25.1207 18.269 25.0399 17.8182H38.1309C38.7213 17.8182 39.2 17.3395 39.2 16.7491C39.1941 12.2248 35.5279 8.55861 31.0036 8.55272ZM25.0399 15.68C25.8601 11.0891 31.3425 9.10772 34.9083 12.1135C35.99 13.0254 36.7185 14.2872 36.9674 15.68H25.0399Z" fill="black"/>
</svg>
