<svg width="80" height="80" viewBox="0 0 80 80" fill="none" xmlns="http://www.w3.org/2000/svg">
<path d="M22.8909 55.3129C16.4166 50.2341 12.257 42.3389 12.257 33.4721C12.257 18.1501 24.678 5.729 40 5.729C55.322 5.729 67.7431 18.1501 67.7431 33.4721C67.7431 42.3389 63.5834 50.2341 57.1092 55.3129C56.5843 57.4336 55.9916 59.4681 55.5239 60.9907C55.0235 62.6197 53.6705 63.8039 51.9757 63.9808C49.7014 64.2182 45.8678 64.479 40 64.479C34.1322 64.479 30.2986 64.2182 28.0243 63.9808C26.3295 63.8039 24.9765 62.6197 24.4761 60.9907C24.0084 59.4681 23.4157 57.4336 22.8909 55.3129Z" stroke="black" stroke-width="2" stroke-linecap="round" stroke-linejoin="round"/>
<path d="M27.7413 63.941C28.072 66.0788 28.4166 68.0244 28.705 69.5611C29.1109 71.7231 30.6486 73.4596 32.8237 73.7886C34.5307 74.047 36.9024 74.2702 39.9998 74.2702C42.9453 74.2702 45.3658 74.0684 47.2086 73.8263C49.7941 73.4871 51.6053 71.3366 51.8861 68.7441L52.4096 63.9116" stroke="black" stroke-width="2" stroke-linecap="round" stroke-linejoin="round"/>
<path d="M56.3194 31.84C56.3194 22.827 49.0129 15.5205 40 15.5205" stroke="black" stroke-width="2" stroke-linecap="round" stroke-linejoin="round"/>
</svg>
