<svg width="35" height="25" viewBox="0 0 35 25" fill="none" xmlns="http://www.w3.org/2000/svg">
<path d="M31.7187 0H2.4399C1.7928 0 1.1722 0.25706 0.71463 0.71463C0.25706 1.1722 0 1.7928 0 2.4399V21.9591C0 22.6062 0.25706 23.2268 0.71463 23.6844C1.1722 24.1419 1.7928 24.399 2.4399 24.399H31.7187C32.3658 24.399 32.9864 24.1419 33.444 23.6844C33.9016 23.2268 34.1586 22.6062 34.1586 21.9591V2.4399C34.1586 1.7928 33.9016 1.1722 33.444 0.71463C32.9864 0.25706 32.3658 0 31.7187 0ZM29.0348 2.4399L17.0793 10.7112L5.12379 2.4399H29.0348ZM2.4399 21.9591V3.55006L16.3839 13.1999C16.5882 13.3415 16.8308 13.4174 17.0793 13.4174C17.3279 13.4174 17.5705 13.3415 17.7747 13.1999L31.7187 3.55006V21.9591H2.4399Z" fill="white"/>
</svg>
