<svg width="30" height="30" viewBox="0 0 30 30" fill="none" xmlns="http://www.w3.org/2000/svg">
<g clip-path="url(#clip0_191_998)">
<path d="M1.07031 26.7856V3.21415C1.07031 2.64582 1.29608 2.10078 1.69794 1.69892C2.09981 1.29705 2.64484 1.07129 3.21317 1.07129H26.7846C27.3529 1.07129 27.898 1.29705 28.2998 1.69892C28.7016 2.10078 28.9275 2.64582 28.9275 3.21415V26.7856C28.9275 27.3539 28.7016 27.899 28.2998 28.3008C27.898 28.7026 27.3529 28.9284 26.7846 28.9284H20.356V18.7713H21.8775C22.2242 18.7713 22.5565 18.6336 22.8017 18.3884C23.0468 18.1433 23.1846 17.8108 23.1846 17.4641V15.8141C23.1846 15.6425 23.1507 15.4725 23.0852 15.3139C23.0194 15.1553 22.9232 15.0112 22.8017 14.8898C22.6804 14.7685 22.5362 14.6722 22.3776 14.6065C22.219 14.5408 22.0491 14.507 21.8775 14.507H20.4417V12.4927C20.4417 10.6927 21.256 10.6927 22.0703 10.6927H23.1203C23.2928 10.6998 23.4647 10.669 23.6239 10.6023C23.7831 10.5357 23.9258 10.4348 24.0417 10.307C24.1662 10.1885 24.2648 10.0453 24.3312 9.88675C24.3977 9.72813 24.4305 9.5575 24.4275 9.38557V7.79986C24.4332 7.62537 24.4045 7.45145 24.3428 7.28808C24.2813 7.12469 24.1883 6.97503 24.0687 6.84766C23.9494 6.72031 23.806 6.61771 23.647 6.54577C23.488 6.47384 23.3162 6.43396 23.1417 6.42843H20.6775C19.9584 6.40139 19.2421 6.53077 18.5779 6.80763C17.9137 7.08447 17.3176 7.5022 16.8307 8.03193C16.3437 8.56169 15.9775 9.19081 15.7575 9.87588C15.5374 10.561 15.4687 11.2856 15.556 11.9999V14.507H14.1846C14.0112 14.5042 13.8389 14.5359 13.6778 14.6003C13.5167 14.6647 13.3701 14.7605 13.2464 14.8822C13.1228 15.0039 13.0246 15.1489 12.9575 15.3089C12.8905 15.4689 12.856 15.6407 12.856 15.8141V17.4641C12.856 17.6376 12.8905 17.8094 12.9575 17.9694C13.0246 18.1294 13.1228 18.2744 13.2464 18.3961C13.3701 18.5178 13.5167 18.6136 13.6778 18.678C13.8389 18.7424 14.0112 18.7741 14.1846 18.7713H15.556V28.9284H3.21317C2.64484 28.9284 2.09981 28.7026 1.69794 28.3008C1.29608 27.899 1.07031 27.3539 1.07031 26.7856Z" stroke="black" stroke-width="1.66667" stroke-linecap="round" stroke-linejoin="round"/>
</g>
<defs>
<clipPath id="clip0_191_998">
<rect width="30" height="30" fill="white"/>
</clipPath>
</defs>
</svg>
