<svg width="32" height="32" viewBox="0 0 32 32" fill="none" xmlns="http://www.w3.org/2000/svg">
<path d="M23.8025 5.36882C23.4344 5.36882 23.0743 5.47794 22.7681 5.68258C22.462 5.88723 22.2233 6.17803 22.0822 6.51819C21.9413 6.85847 21.9046 7.2328 21.9764 7.59406C22.0483 7.95519 22.2255 8.28704 22.486 8.54736C22.7463 8.80782 23.0781 8.98515 23.4393 9.05693C23.8005 9.12884 24.1749 9.09203 24.5151 8.95098C24.8554 8.81006 25.1461 8.57138 25.3507 8.26526C25.5553 7.95902 25.6645 7.59908 25.6645 7.23082C25.6645 6.73695 25.4684 6.26327 25.1192 5.91415C24.7701 5.56489 24.2965 5.36882 23.8025 5.36882ZM30.9402 9.12383C30.9101 7.83644 30.669 6.56265 30.2265 5.35325C29.8318 4.31854 29.2179 3.38147 28.4265 2.60683C27.6582 1.81147 26.7191 1.20122 25.6801 0.82241C24.474 0.36641 23.1986 0.119806 21.9095 0.0931528C20.2648 1.47459e-08 19.7372 0 15.5167 0C11.2962 0 10.7685 1.47459e-08 9.12383 0.0931528C7.8346 0.119806 6.55949 0.36641 5.35325 0.82241C4.3163 1.20505 3.37791 1.81476 2.60683 2.60683C1.81147 3.37514 1.20122 4.31432 0.82241 5.35325C0.36641 6.55949 0.119806 7.8346 0.0931528 9.12383C1.47459e-08 10.7685 0 11.2962 0 15.5167C0 19.7372 1.47459e-08 20.2648 0.0931528 21.9095C0.119806 23.1986 0.36641 24.474 0.82241 25.6801C1.20122 26.7191 1.81147 27.6582 2.60683 28.4265C3.37791 29.2186 4.3163 29.8283 5.35325 30.2109C6.55949 30.6668 7.8346 30.9135 9.12383 30.9402C10.7685 31.0333 11.2962 31.0333 15.5167 31.0333C19.7372 31.0333 20.2648 31.0333 21.9095 30.9402C23.1986 30.9135 24.474 30.6668 25.6801 30.2109C26.7191 29.832 27.6582 29.2219 28.4265 28.4265C29.2213 27.6548 29.8359 26.7169 30.2265 25.6801C30.669 24.4707 30.9101 23.197 30.9402 21.9095C30.9402 20.2648 31.0333 19.7372 31.0333 15.5167C31.0333 11.2962 31.0333 10.7685 30.9402 9.12383ZM28.1472 21.7233C28.136 22.7083 27.9576 23.6842 27.6197 24.6095C27.3719 25.2848 26.9741 25.8949 26.4559 26.3939C25.9525 26.9066 25.3436 27.3038 24.6715 27.5577C23.7463 27.8956 22.7704 28.0738 21.7853 28.0852C20.2337 28.1628 19.6596 28.1783 15.5787 28.1783C11.4978 28.1783 10.9237 28.1783 9.37201 28.0852C8.34931 28.1043 7.33097 27.9469 6.36183 27.6197C5.71913 27.353 5.13818 26.9568 4.655 26.4559C4.14002 25.9574 3.74696 25.3468 3.50682 24.6715C3.12788 23.7331 2.91782 22.7348 2.88615 21.7233C2.88615 20.1717 2.793 19.5976 2.793 15.5167C2.793 11.4358 2.793 10.8617 2.88615 9.31C2.89301 8.30313 3.07681 7.30524 3.42924 6.36183C3.70236 5.70686 4.12168 5.12314 4.655 4.655C5.12644 4.12155 5.70897 3.69774 6.36183 3.41367C7.30761 3.07233 8.30445 2.89394 9.31 2.88615C10.8617 2.88615 11.4358 2.793 15.5167 2.793C19.5976 2.793 20.1717 2.793 21.7233 2.88615C22.7083 2.89737 23.6842 3.07576 24.6095 3.41367C25.3145 3.67531 25.9474 4.10083 26.4559 4.655C26.9644 5.13158 27.3618 5.71438 27.6197 6.36183C27.9646 7.30669 28.1431 8.30419 28.1472 9.31C28.2248 10.8617 28.2403 11.4358 28.2403 15.5167C28.2403 19.5976 28.2248 20.1717 28.1472 21.7233ZM15.5167 7.55659C13.943 7.55976 12.4056 8.02922 11.0985 8.90572C9.7916 9.78223 8.77378 11.0265 8.17356 12.4813C7.57348 13.936 7.41805 15.5361 7.72693 17.079C8.03594 18.6221 8.79529 20.0391 9.90903 21.1508C11.0229 22.2625 12.4413 23.019 13.9851 23.3249C15.5287 23.6309 17.1284 23.4723 18.582 22.8693C20.0356 22.2664 21.2779 21.2461 22.1518 19.9373C23.0259 18.6287 23.4923 17.0904 23.4923 15.5167C23.4943 14.4694 23.2893 13.4322 22.8889 12.4645C22.4887 11.4968 21.9012 10.6178 21.1599 9.87802C20.4187 9.13821 19.5385 8.55238 18.5701 8.1539C17.6015 7.75556 16.5639 7.5525 15.5167 7.55659ZM15.5167 20.6837C14.4948 20.6837 13.4958 20.3807 12.6461 19.8129C11.7964 19.2452 11.134 18.4382 10.7429 17.494C10.3518 16.5499 10.2496 15.511 10.4489 14.5086C10.6483 13.5064 11.1403 12.5855 11.863 11.863C12.5855 11.1405 13.5064 10.6483 14.5086 10.4489C15.511 10.2496 16.5499 10.3518 17.494 10.7429C18.4382 11.134 19.2452 11.7964 19.8129 12.6461C20.3807 13.4958 20.6837 14.4948 20.6837 15.5167C20.6837 16.1953 20.5501 16.8671 20.2904 17.494C20.0308 18.121 19.6501 18.6905 19.1703 19.1703C18.6905 19.6502 18.121 20.0308 17.494 20.2904C16.8671 20.5501 16.1953 20.6837 15.5167 20.6837Z" fill="black"/>
</svg>
