<svg width="40" height="40" viewBox="0 0 40 40" fill="none" xmlns="http://www.w3.org/2000/svg">
<path d="M26.39 13.6113C27.6485 13.6113 28.8947 13.8592 30.0574 14.3408C31.2201 14.8224 32.2765 15.5283 33.1664 16.4182C34.0563 17.3081 34.7622 18.3646 35.2438 19.5273C35.7254 20.69 35.9733 21.9362 35.9733 23.1947V34.3752H29.5844V23.1947C29.5844 22.3474 29.2479 21.5349 28.6488 20.9358C28.0497 20.3368 27.2372 20.0002 26.39 20.0002C25.5428 20.0002 24.7302 20.3368 24.1312 20.9358C23.5321 21.5349 23.1955 22.3474 23.1955 23.1947V34.3752H16.8066V23.1947C16.8066 20.653 17.8163 18.2154 19.6135 16.4182C21.4108 14.621 23.8483 13.6113 26.39 13.6113Z" stroke="black" stroke-width="1.66667" stroke-linecap="round" stroke-linejoin="round"/>
<path d="M4.02734 15.2084H10.4162V34.375H4.02734V15.2084Z" stroke="black" stroke-width="1.66667" stroke-linecap="round" stroke-linejoin="round"/>
<path d="M4.02734 7.2224C4.02734 8.06962 4.3639 8.88214 4.96297 9.48121C5.56205 10.0803 6.37457 10.4168 7.22179 10.4168C8.06901 10.4168 8.88153 10.0803 9.4806 9.48121C10.0797 8.88214 10.4162 8.06962 10.4162 7.2224C10.4162 6.37518 10.0797 5.56266 9.4806 4.96359C8.88153 4.36451 8.06901 4.02795 7.22179 4.02795C6.37457 4.02795 5.56205 4.36451 4.96297 4.96359C4.3639 5.56266 4.02734 6.37518 4.02734 7.2224Z" stroke="black" stroke-width="1.66667" stroke-linecap="round" stroke-linejoin="round"/>
</svg>
