<svg width="24" height="34" viewBox="0 0 24 34" fill="none" xmlns="http://www.w3.org/2000/svg">
<path d="M11.9004 0C5.33878 0 0 5.10602 0 11.3799C0 14.3675 1.36184 18.3409 4.04756 23.1896C6.2045 27.0825 8.69996 30.6028 9.99784 32.3544C10.2172 32.6537 10.5039 32.8971 10.8348 33.0649C11.1658 33.2327 11.5316 33.32 11.9026 33.32C12.2737 33.32 12.6395 33.2327 12.9705 33.0649C13.3014 32.8971 13.5882 32.6537 13.8075 32.3544C15.1031 30.6028 17.6007 27.0825 19.7577 23.1896C22.4391 18.3424 23.8008 14.369 23.8008 11.3799C23.8008 5.10602 18.462 0 11.9004 0ZM11.9004 16.6606C10.959 16.6606 10.0386 16.3815 9.25586 15.8584C8.47301 15.3354 7.86292 14.5919 7.5026 13.7221C7.14234 12.8523 7.04806 11.8952 7.23173 10.9718C7.4154 10.0484 7.8688 9.20019 8.53442 8.5345C9.20026 7.8688 10.0483 7.41547 10.9718 7.2318C11.8952 7.04806 12.8522 7.14234 13.7221 7.50267C14.5919 7.86292 15.3353 8.47308 15.8584 9.25593C16.3814 10.0386 16.6606 10.959 16.6606 11.9005C16.6592 13.1625 16.1573 14.3724 15.2649 15.2649C14.3725 16.1573 13.1625 16.6592 11.9004 16.6606Z" fill="#540B0E"/>
</svg>
