<svg width="31" height="31" viewBox="0 0 31 31" fill="none" xmlns="http://www.w3.org/2000/svg">
<g clip-path="url(#clip0_0_181)">
<path fill-rule="evenodd" clip-rule="evenodd" d="M8.63659 0.636719C9.9379 0.636719 11.1082 1.429 11.5915 2.63726L13.1611 6.56141C13.7285 7.97985 13.3959 9.59992 12.3157 10.6802L10.3755 12.6203C11.489 16.2199 14.3322 19.063 17.9317 20.1766L19.8719 18.2363C20.9521 17.1561 22.5722 16.8236 23.9906 17.3909L27.9148 18.9606C29.1231 19.4439 29.9153 20.6142 29.9153 21.9155V22.2776C29.9153 26.4959 26.4957 29.9155 22.2774 29.9155H21.9591C10.4171 29.9155 1.01728 20.7452 0.647797 9.29249C0.64035 9.23654 0.63653 9.17983 0.63653 9.12267V8.27467C0.63653 4.05635 4.05617 0.636719 8.27448 0.636719H8.63659ZM9.22757 3.58281C9.13089 3.34116 8.89685 3.1827 8.63659 3.1827H8.27448C5.46225 3.1827 3.18251 5.46245 3.18251 8.27467V9.00244C3.18614 9.03636 3.18843 9.07048 3.18933 9.10479C3.46022 19.2378 11.7603 27.3695 21.9591 27.3695H22.2774C25.0896 27.3695 27.3694 25.0898 27.3694 22.2776V21.9155C27.3694 21.6552 27.2109 21.4212 26.9693 21.3245L23.0451 19.7548C22.5723 19.5657 22.0323 19.6765 21.6722 20.0367L19.714 21.9949C19.0968 22.6121 18.1608 22.9071 17.2484 22.63C12.7902 21.2762 9.27588 17.7618 7.92205 13.3037C7.64499 12.3913 7.93994 11.4553 8.55721 10.838L10.5154 8.87985C10.8755 8.51978 10.9863 7.97978 10.7972 7.50693L9.22757 3.58281Z" fill="white"/>
</g>
<defs>
<clipPath id="clip0_0_181">
<rect width="30.5518" height="30.5518" fill="white" transform="matrix(-1 0 0 1 30.5518 0)"/>
</clipPath>
</defs>
</svg>
