<svg width="80" height="80" viewBox="0 0 80 80" fill="none" xmlns="http://www.w3.org/2000/svg">
<path d="M11.25 27.2468C11.25 27.2468 20.6326 36.8055 35.0077 36.8055C44.7917 36.8055 49.9849 31.1414 54.375 29.6364C62.6259 26.8078 68.75 27.2468 68.75 27.2468" stroke="#737373" stroke-width="2" stroke-linecap="round"/>
<path d="M11.25 46.4138C11.25 46.4138 17.9228 45.9749 26.9131 48.8035C31.6967 50.3084 37.355 55.9725 48.0158 55.9725C57.6369 55.9725 65.2054 52.366 69.6128 49.5836" stroke="#737373" stroke-width="2" stroke-linecap="round"/>
<path d="M71.9444 40.0001C71.9444 57.6424 57.6423 71.9446 40 71.9446C22.3575 71.9446 8.05554 57.6424 8.05554 40.0001C8.05554 22.3577 22.3575 8.05566 40 8.05566C57.6423 8.05566 71.9444 22.3577 71.9444 40.0001Z" stroke="black" stroke-width="2"/>
</svg>
