<svg width="44" height="38" viewBox="0 0 44 38" fill="none" xmlns="http://www.w3.org/2000/svg">
<path fill-rule="evenodd" clip-rule="evenodd" d="M24.12 36.6725C23.804 36.3561 23.6265 35.9272 23.6265 35.48C23.6265 35.0328 23.804 34.6039 24.12 34.2875L38.115 20.2925L1.68752 20.2925C1.23997 20.2925 0.81074 20.1147 0.494273 19.7982C0.177805 19.4818 1.749e-05 19.0526 1.74508e-05 18.605C1.74117e-05 18.1574 0.177805 17.7282 0.494272 17.4118C0.81074 17.0953 1.23997 16.9175 1.68752 16.9175L38.115 16.9175L24.12 2.9225C23.9542 2.76801 23.8212 2.58171 23.729 2.37471C23.6368 2.16771 23.5872 1.94426 23.5832 1.71768C23.5792 1.49109 23.6209 1.26603 23.7057 1.05591C23.7906 0.845781 23.9169 0.654905 24.0772 0.494665C24.2374 0.334421 24.4283 0.208097 24.6384 0.123224C24.8485 0.0383508 25.0736 -0.00332477 25.3002 0.00067301C25.5268 0.00467079 25.7502 0.0542618 25.9572 0.146494C26.1642 0.238725 26.3505 0.371706 26.505 0.5375L43.38 17.4125C43.696 17.7289 43.8735 18.1578 43.8735 18.605C43.8735 19.0522 43.696 19.4811 43.38 19.7975L26.505 36.6725C26.1886 36.9885 25.7597 37.166 25.3125 37.166C24.8653 37.166 24.4364 36.9885 24.12 36.6725Z" fill="black"/>
</svg>
