<svg width="44" height="38" viewBox="0 0 44 38" fill="none" xmlns="http://www.w3.org/2000/svg">
<path fill-rule="evenodd" clip-rule="evenodd" d="M19.7535 0.493516C20.0695 0.809923 20.247 1.23883 20.247 1.68602C20.247 2.1332 20.0695 2.56211 19.7535 2.87852L5.75852 16.8735H42.186C42.6336 16.8735 43.0628 17.0513 43.3793 17.3678C43.6957 17.6842 43.8735 18.1135 43.8735 18.561C43.8735 19.0086 43.6957 19.4378 43.3793 19.7543C43.0628 20.0707 42.6336 20.2485 42.186 20.2485H5.75852L19.7535 34.2435C19.9193 34.398 20.0523 34.5843 20.1445 34.7913C20.2368 34.9983 20.2863 35.2218 20.2903 35.4483C20.2943 35.6749 20.2527 35.9 20.1678 36.1101C20.0829 36.3202 19.9566 36.5111 19.7964 36.6714C19.6361 36.8316 19.4452 36.9579 19.2351 37.0428C19.025 37.1277 18.7999 37.1693 18.5733 37.1653C18.3468 37.1613 18.1233 37.1118 17.9163 37.0195C17.7093 36.9273 17.523 36.7943 17.3685 36.6285L0.493515 19.7535C0.177501 19.4371 0 19.0082 0 18.561C0 18.1138 0.177501 17.6849 0.493515 17.3685L17.3685 0.493516C17.6849 0.177502 18.1138 0 18.561 0C19.0082 0 19.4371 0.177502 19.7535 0.493516Z" fill="black"/>
</svg>
