<svg width="33" height="27" viewBox="0 0 33 27" fill="none" xmlns="http://www.w3.org/2000/svg">
<path fill-rule="evenodd" clip-rule="evenodd" d="M18.4393 26.5606C17.8535 25.9749 17.8535 25.0251 18.4393 24.4393L27.8787 15L1.49999 15C0.671693 15 -6.52161e-06 14.3284 -6.44919e-06 13.5C-6.37676e-06 12.6716 0.671693 12 1.49999 12L27.8787 12L18.4393 2.56079C17.8535 1.97489 17.8535 1.02509 18.4393 0.439189C19.0251 -0.146411 19.9749 -0.146411 20.5606 0.439189L32.5606 12.4393C33.1465 13.0251 33.1465 13.9749 32.5606 14.5606L20.5606 26.5606C19.9749 27.1465 19.0251 27.1465 18.4393 26.5606Z" fill="white"/>
</svg>
