<svg width="34" height="27" viewBox="0 0 34 27" fill="none" xmlns="http://www.w3.org/2000/svg">
<path d="M21.32 11.2923L15.2067 7.77182C14.8492 7.56582 14.4438 7.45707 14.0312 7.45657C12.727 7.45473 11.6685 8.51043 11.6667 9.81445V16.8522C11.6616 17.6947 12.1115 18.4745 12.8434 18.8917C13.203 19.1018 13.6118 19.213 14.0283 19.2138C14.4427 19.212 14.8495 19.102 15.2083 18.8948L21.32 15.3743C21.6798 15.1672 21.9787 14.8683 22.1858 14.5085C22.8348 13.3812 22.4472 11.9413 21.32 11.2923ZM20.4868 13.929L14.3768 17.4495C14.1612 17.5762 13.894 17.5762 13.6785 17.4495C13.4635 17.328 13.3313 17.0992 13.3335 16.8522V9.81445C13.3313 9.56747 13.4635 9.33868 13.6785 9.21712C13.7862 9.15568 13.9077 9.12262 14.0317 9.1211C14.1527 9.1215 14.2713 9.15467 14.375 9.21712L20.4868 12.7377C20.5942 12.7987 20.6832 12.8875 20.744 12.9948C20.931 13.3238 20.8158 13.742 20.4868 13.929ZM28.3333 0H5C2.23978 0.00305 0.00305 2.23978 0 5V21.6667C0.00305 24.4268 2.23978 26.6637 5 26.6667H28.3333C31.0935 26.6637 33.3303 24.4268 33.3333 21.6667V5C33.3303 2.23978 31.0935 0.00305 28.3333 0ZM31.6667 21.6667C31.6643 23.5067 30.1733 24.9977 28.3333 25H5C3.16 24.9977 1.669 23.5067 1.66667 21.6667V5C1.669 3.16 3.16 1.669 5 1.66667H28.3333C30.1733 1.669 31.6643 3.16 31.6667 5V21.6667Z" fill="black"/>
</svg>
